<svg width="168" height="67" viewBox="0 0 168 67" fill="none" xmlns="http://www.w3.org/2000/svg">
<g clip-path="url(#clip0_13_446)">
<path d="M95.7612 16.3899L95.7578 16.4125L95.7486 16.4779L94.7925 23.3157L88.9386 25.4564L88.8469 25.4127L85.5695 23.8614L83.8748 17.3805L83.7586 16.9356L83.794 16.9221L91.0443 14.2072L95.7569 16.3873L95.7612 16.3899Z" fill="#6C63FF"/>
<path d="M88.8469 25.4127L85.5695 23.8613L83.7586 16.9355L83.794 16.922L88.5175 18.9082L88.8469 25.4127Z" fill="#6C63FF"/>
<path opacity="0.2" d="M88.9291 25.3336L86.4361 20.572L86.7563 19.2221L85.2484 17.4523L85.12 17.561L86.5727 19.2661L85.4875 23.842L85.6515 23.8807L86.3769 20.8218L88.7797 25.4113L88.9291 25.3336Z" fill="black"/>
<path d="M95.7612 16.4738L95.7486 16.4779L88.5176 18.9923L83.8748 17.3805L83.7586 16.9356L83.794 16.9221L91.0443 14.2072L95.7569 16.3873L95.7578 16.4125L95.7612 16.4738Z" fill="#3F3D56"/>
<path d="M88.6439 19.1182L87.1698 17.9849L87.5067 16.7256L91.7181 15.2145L94.5819 15.3824L95.7191 16.3479L95.8032 16.5996L88.6439 19.1182Z" fill="#6C63FF"/>
<path d="M83.8428 16.9356L87.1698 16.8096L88.9722 16.1999L91.7822 15.2145L92.3078 14.4591L90.9964 14.2251L83.8428 16.9356Z" fill="#6C63FF"/>
<path d="M90.4714 15.5846L88.7366 16.1914L88.7924 16.3498L90.5271 15.743L90.4714 15.5846Z" fill="#CCCCCC"/>
<path d="M67.6219 5.76697L66.8086 9.8197L70.6038 12.6567L72.3659 7.38803L67.6219 5.76697Z" fill="#9F616A"/>
<path d="M70.6716 9.48195C72.6928 9.48195 74.3312 7.8489 74.3312 5.83442C74.3312 3.81994 72.6928 2.18689 70.6716 2.18689C68.6504 2.18689 67.012 3.81994 67.012 5.83442C67.012 7.8489 68.6504 9.48195 70.6716 9.48195Z" fill="#9F616A"/>
<path d="M62.7424 33.4712C62.7591 34.648 67.9015 47.7451 67.1875 49.4505C66.062 50.5972 63.6411 56.7004 62.6068 58.3286C62.4713 58.3285 61.7936 60.3549 61.7936 60.3549C61.7936 60.3549 63.4201 62.9217 65.1821 61.8409C67.3978 56.6471 72.9465 53.7504 73.0446 46.9811C73.3124 49.1195 74.103 62.8456 74.103 62.8456C74.103 62.8456 73.9513 62.9098 77.365 63.2358C77.895 55.2693 80.0608 41.7158 75.2121 33.2009C73.7213 32.5256 62.7424 33.4712 62.7424 33.4712Z" fill="#2F2E41"/>
<path d="M74.1028 62.5784C73.9443 62.8821 72.8079 65.6856 73.842 65.9667C75.0346 66.2909 76.1907 65.8367 76.1907 65.8367C76.1907 65.8367 78.2784 66.4869 79.556 65.6605C80.1523 65.0662 80.0168 64.5259 79.7322 64.1342C79.5876 63.9412 79.4025 63.782 79.1898 63.6677C78.9771 63.5534 78.7419 63.4868 78.5007 63.4725C77.8523 63.4265 77.6464 63.3067 77.5721 63.0106C77.4637 62.5784 74.1028 62.5784 74.1028 62.5784Z" fill="#2F2E41"/>
<path d="M62.9501 60.1302C62.9501 60.1302 60.0369 61.0472 60.6502 62.1169C61.0486 62.7799 61.6301 63.3144 62.3254 63.6565C62.3254 63.6565 62.933 66.153 64.6195 66.153C65.4628 66.153 65.7503 65.6754 65.827 65.1978C65.8616 64.9595 65.8437 64.7165 65.7743 64.4857C65.705 64.255 65.586 64.0421 65.4255 63.862C64.9998 63.3725 64.9391 63.1427 65.0967 62.881C65.3267 62.4989 62.9501 60.1302 62.9501 60.1302Z" fill="#2F2E41"/>
<path d="M75.8906 33.8666C75.8906 33.8666 75.3478 34.9474 73.1792 34.5416C71.0106 34.1371 62.4719 34.5416 62.4719 34.5416C62.4719 34.5416 62.9455 24.8828 61.8612 19.0735C60.7769 13.2642 65.0463 9.95446 65.0463 9.95446L66.402 8.60324C67.7577 8.46929 70.6204 12.6621 70.6204 12.6621C71.5625 12.8194 72.442 16.8107 73.1922 20.5873C73.2366 20.8032 73.2783 21.0165 73.3201 21.2297C73.6659 22.9906 74.1473 24.9505 74.4357 26.71C74.4566 26.8349 74.4762 26.9584 74.4944 27.082C74.8372 29.3669 75.3033 31.6317 75.8906 33.8666Z" fill="#E6E6E6"/>
<path d="M66.3903 3.56326C66.3903 3.56326 65.7061 2.06294 67.4851 1.38098C67.4851 1.38098 68.9904 -1.0741 72.001 0.562622C72.001 0.562622 74.0537 1.38098 74.0537 3.56326C74.0537 5.74555 74.7379 6.15472 74.7379 6.15472C74.7379 6.15472 73.7189 5.11285 73.4453 4.2945C73.1716 3.47614 71.043 3.29048 70.222 4.10884C69.4009 4.92719 67.3482 4.7908 67.3482 4.7908L67.4851 7.79144C67.4851 7.79144 66.8008 6.01833 66.5271 6.01833C66.2535 6.01833 65.9798 3.56326 66.3903 3.56326Z" fill="#2F2E41"/>
<path opacity="0.2" d="M74.4357 26.7101C71.2024 24.9584 65.9649 21.1167 64.2751 19.0385C62.0478 16.301 64.4774 14.2202 64.4774 14.2202C67.2318 12.4879 70.5252 18.4312 70.5252 18.4312L73.1922 20.5874C73.2366 20.8033 73.2783 21.0166 73.3201 21.2298C73.6659 22.9907 74.1473 24.9506 74.4357 26.7101Z" fill="black"/>
<path d="M84.0879 24.6914C84.0879 24.6914 88.8948 26.6363 89.686 24.4499C90.4771 22.2635 85.8908 22.3011 85.8908 22.3011L84.0903 22.5554L84.0879 24.6914Z" fill="#9F616A"/>
<path d="M63.8612 13.3304C63.8612 13.3304 61.4329 15.4124 63.6586 18.1491C65.8843 20.8857 76.1131 26.7329 76.1131 26.7329L82.776 24.9376L84.6615 25.2815L85.017 21.7532L82.2393 22.0235L75.1879 20.5271L70.6915 16.8907C70.6915 16.8907 66.615 11.5991 63.8612 13.3304Z" fill="#E6E6E6"/>
<path opacity="0.2" d="M72.7078 38.4116L73.1326 48.3059L72.0554 38.4116H72.7078Z" fill="black"/>
<path d="M118.577 31.334L114.72 32.2247C114.421 32.2936 114.108 32.2438 113.846 32.086C113.584 31.9281 113.394 31.6746 113.316 31.3793C113.271 31.2081 113.265 31.0289 113.3 30.8553C113.334 30.6816 113.408 30.5179 113.514 30.3765C113.621 30.2352 113.759 30.1197 113.917 30.0389C114.075 29.9581 114.249 29.914 114.427 29.9098L118.152 29.8235L118.577 31.334Z" fill="#FFB9B9"/>
<path d="M118.167 31.898L117.311 29.3369L122.446 27.5887L121.083 15.626C123.537 16.0707 124.705 17.9939 124.595 20.4773L125.259 28.6403L118.167 31.898Z" fill="#3F3D56"/>
<path d="M121.715 12.9885H130.105V8.83014C130.108 7.70707 129.666 6.62814 128.876 5.8275C128.49 5.43305 128.029 5.11974 127.519 4.90607C127.01 4.6924 126.462 4.58271 125.91 4.5835C124.806 4.58553 123.747 5.02051 122.962 5.7944C122.178 6.56829 121.73 7.61889 121.716 8.71907C121.716 8.75715 121.715 8.79333 121.715 8.83014L121.715 12.9885Z" fill="#2F2E41"/>
<path d="M133.613 61.8554L130.931 61.5487L127.721 39.9457L121.083 61.6363L118.181 61.7239L121.478 35.0379L120.995 28.947L129.216 26.3617C135.039 30.4131 134.919 44.7231 133.613 61.8554Z" fill="#2F2E41"/>
<path d="M125.172 12.1642C126.92 12.1642 128.337 10.7517 128.337 9.00924C128.337 7.26679 126.92 5.85425 125.172 5.85425C123.423 5.85425 122.006 7.26679 122.006 9.00924C122.006 10.7517 123.423 12.1642 125.172 12.1642Z" fill="#FFB9B9"/>
<path d="M128.337 14.7057L122.973 16.1079C123.877 14.3758 124.166 12.7588 123.677 11.2878L127.458 10.6743C127.215 12.0809 127.53 13.5266 128.337 14.7057Z" fill="#FFB9B9"/>
<path d="M130.14 27.5448C127.131 29.4517 123.627 31.6423 121.039 29.5167L119.808 23.5572C118.829 22.6887 119.263 20.0084 120.586 16.1881C120.67 15.9456 120.808 15.7253 120.99 15.544C121.172 15.3627 121.394 15.2251 121.637 15.1416L123.677 14.4428C124.581 15.2005 126.063 14.7486 127.809 13.7417L129.832 14.2675L130.711 20.8404C129.442 22.7359 129.664 25.2597 130.14 27.5448Z" fill="#3F3D56"/>
<path d="M127.633 30.1069L123.777 30.9976C123.478 31.0665 123.165 31.0168 122.903 30.8589C122.64 30.7011 122.45 30.4476 122.373 30.1523C122.328 29.9811 122.322 29.8019 122.357 29.6282C122.391 29.4545 122.464 29.2909 122.571 29.1495C122.678 29.0081 122.816 28.8927 122.974 28.8119C123.132 28.731 123.306 28.6869 123.484 28.6828L127.209 28.5964L127.633 30.1069Z" fill="#FFB9B9"/>
<path d="M133.147 65.9856C132.696 66.1905 132.319 64.9207 131.939 65.2928C130.876 66.3337 128.327 66.1004 128.327 66.1004C128.241 66.073 128.162 66.0285 128.094 65.9697C128.026 65.9109 127.971 65.839 127.932 65.7583C127.893 65.6776 127.871 65.5899 127.866 65.5004C127.862 65.4109 127.877 65.3214 127.908 65.2375C127.946 65.1371 128.008 65.0473 128.088 64.976C128.168 64.9046 128.265 64.8537 128.369 64.8277L129.499 64.546L131.274 61.4355L133.208 61.1915L133.257 61.2712C133.631 61.8717 133.872 62.5449 133.964 63.2457C134.056 63.9465 133.997 64.6589 133.791 65.3352C133.63 65.8488 133.411 65.8652 133.147 65.9856Z" fill="#2F2E41"/>
<path d="M120.397 65.9856C119.946 66.1905 119.569 64.9207 119.189 65.2928C118.126 66.3337 115.577 66.1004 115.577 66.1004C115.491 66.073 115.412 66.0285 115.344 65.9697C115.277 65.9109 115.221 65.839 115.182 65.7583C115.143 65.6776 115.121 65.5899 115.117 65.5004C115.113 65.4109 115.127 65.3214 115.158 65.2375C115.196 65.1371 115.258 65.0473 115.338 64.976C115.418 64.9046 115.515 64.8537 115.619 64.8277L116.749 64.546L118.524 61.4355L120.458 61.1915L120.507 61.2712C120.881 61.8717 121.122 62.5449 121.214 63.2457C121.306 63.9465 121.247 64.6589 121.041 65.3352C120.88 65.8488 120.661 65.8652 120.397 65.9856Z" fill="#2F2E41"/>
<path d="M128.882 6.37764L128.085 8.90575L121.192 8.78365C121.216 7.89913 121.516 7.04403 122.051 6.3378C122.586 5.63157 123.329 5.10949 124.176 4.84448C125.023 4.57947 125.932 4.58477 126.775 4.85964C127.619 5.13451 128.356 5.66522 128.882 6.37764H128.882Z" fill="#2F2E41"/>
<path d="M127.224 30.6711L126.367 28.1099L131.502 26.3617L129.56 14.1398C130.747 14.3548 131.815 14.991 132.567 15.9305C133.319 16.8701 133.705 18.0494 133.652 19.2503L134.316 27.4133L127.224 30.6711Z" fill="#3F3D56"/>
<path d="M114.959 23.7662L109.618 24.911L108.527 19.6736L110.537 16.9832L112.346 16.6398L114.356 18.6718L114.959 23.7662Z" fill="#CCCCCC"/>
<path d="M112.489 23.9947H109.273L108.835 21.8372L108.354 19.4729L109.072 18.4429L110.451 18.872L111.944 20.9333L112.318 23.0336L112.344 23.1832L112.489 23.9947Z" fill="#E6E6E6"/>
<path d="M117.888 22.7359L114.183 23.1652L114.844 18.4716L116.337 17.1263L117.629 17.4412L118.491 19.416L117.888 22.7359Z" fill="#CCCCCC"/>
<path d="M118.375 19.9592L118.031 21.8488L116.911 28.2875L112.604 29.6621L112.455 29.5815L110.134 28.3161L108.828 21.8345L108.835 21.8371L112.288 23.2221L112.318 23.0335L112.339 22.897L112.604 21.2193L113.781 19.9592L117.715 19.015L118.375 19.9592Z" fill="#E6E6E6"/>
<path d="M115.648 19.7594C116.155 19.7594 116.567 19.3494 116.567 18.8436C116.567 18.3378 116.155 17.9277 115.648 17.9277C115.14 17.9277 114.729 18.3378 114.729 18.8436C114.729 19.3494 115.14 19.7594 115.648 19.7594Z" fill="#E6E6E6"/>
<path d="M113.389 19.3163L111.293 19.6884L111.303 19.7447L113.399 19.3727L113.389 19.3163Z" fill="white"/>
<path d="M112.455 29.5816L110.134 28.3162L108.828 21.8346L108.835 21.8372L108.354 19.4729L109.072 18.4429L110.451 18.872L111.944 20.9333L112.318 23.0336L112.339 22.8971L112.344 23.1832L112.359 23.9947L112.455 29.5816Z" fill="#F2F2F2"/>
<path d="M110.162 28.3242L110.107 28.3093L111.252 24.0299L109.941 22.3072L109.987 22.2726L111.315 24.0176L110.162 28.3242Z" fill="#CCCCCC"/>
<path d="M110.809 25.8812L110.757 25.906L112.578 29.6744L112.63 29.6496L110.809 25.8812Z" fill="#CCCCCC"/>
<path opacity="0.2" d="M118.149 21.4566L117.934 22.644L117.923 22.6452L116.957 28.1963L112.65 29.5701L112.624 29.5824L112.607 29.5466L110.181 28.225L110.153 28.2175L110.168 28.1614L108.874 21.7425L108.881 21.7451L108.737 21.0405L108.844 20.8868L109.176 20.4117L110.554 20.841L112.047 22.9016L112.069 23.0241L112.226 23.9033L112.289 24.2565L112.422 25.0026L112.548 24.201L112.593 23.9125L112.708 23.1878L113.885 21.9285L114.408 21.8029L114.773 21.7153L115.274 21.5951C115.119 21.5009 114.995 21.3628 114.918 21.1984C114.841 21.0339 114.815 20.8504 114.843 20.6712C114.871 20.492 114.952 20.3252 115.076 20.1918C115.199 20.0584 115.359 19.9646 115.536 19.9221C115.713 19.8796 115.899 19.8904 116.069 19.9532C116.24 20.0159 116.388 20.1278 116.495 20.2746C116.602 20.4214 116.663 20.5965 116.67 20.7777C116.676 20.959 116.629 21.1382 116.534 21.2926L117.819 20.9841L118.136 21.4371L118.149 21.4566Z" fill="black"/>
<path d="M112.593 26.2502H109.377L108.458 21.7283L109.176 20.6979L110.554 21.1272L112.047 23.1878L112.593 26.2502Z" fill="#E6E6E6"/>
<path d="M117.015 30.5433L112.707 31.917L110.238 30.5719L108.931 24.0895L112.392 25.4775L112.707 23.4741L113.885 22.2148L117.819 21.2704L118.479 22.2148L118.135 24.1038L117.015 30.5433Z" fill="#E6E6E6"/>
<path d="M115.751 22.0144C116.259 22.0144 116.67 21.6044 116.67 21.0986C116.67 20.5928 116.259 20.1827 115.751 20.1827C115.244 20.1827 114.832 20.5928 114.832 21.0986C114.832 21.6044 115.244 22.0144 115.751 22.0144Z" fill="#E6E6E6"/>
<path d="M112.561 31.7924L110.24 30.527L108.934 24.0454L108.94 24.048L108.46 21.6837L109.178 20.6537L110.557 21.0828L112.05 23.1441L112.424 25.2444L112.445 25.1079L112.45 25.394L112.465 26.2055L112.561 31.7924Z" fill="#F2F2F2"/>
<path d="M110.266 30.5792L110.21 30.5645L111.355 26.2849L110.044 24.5622L110.09 24.5276L111.418 26.2727L110.266 30.5792Z" fill="#CCCCCC"/>
<path d="M110.912 28.1362L110.861 28.161L112.682 31.9294L112.733 31.9046L110.912 28.1362Z" fill="#CCCCCC"/>
<path d="M148.623 60.4852L143.282 61.6301L142.191 56.3926L144.201 53.7022L146.01 53.3588L148.02 55.3908L148.623 60.4852Z" fill="#CCCCCC"/>
<path d="M146.154 60.7136H142.937L142.499 58.5561L142.019 56.1917L142.736 55.1617L144.115 55.5909L145.608 57.6522L145.983 59.7525L146.009 59.9021L146.154 60.7136Z" fill="#E6E6E6"/>
<path d="M151.552 59.4549L147.848 59.8843L148.508 55.1906L150.001 53.8455L151.293 54.1602L152.155 56.135L151.552 59.4549Z" fill="#CCCCCC"/>
<path d="M152.039 56.678L151.695 58.5677L150.575 65.0064L146.268 66.381L146.12 66.3004L143.798 65.035L142.492 58.5534L142.499 58.556L145.953 59.941L145.983 59.7524L146.003 59.6159L146.268 57.9382L147.445 56.678L151.379 55.7339L152.039 56.678Z" fill="#E6E6E6"/>
<path d="M149.312 56.4784C149.82 56.4784 150.231 56.0684 150.231 55.5626C150.231 55.0568 149.82 54.6467 149.312 54.6467C148.805 54.6467 148.393 55.0568 148.393 55.5626C148.393 56.0684 148.805 56.4784 149.312 56.4784Z" fill="#E6E6E6"/>
<path d="M147.053 56.0352L144.957 56.4072L144.967 56.4636L147.063 56.0915L147.053 56.0352Z" fill="white"/>
<path d="M146.12 66.3005L143.798 65.0351L142.492 58.5534L142.499 58.556L142.019 56.1917L142.736 55.1617L144.115 55.5909L145.608 57.6522L145.983 59.7525L146.003 59.6159L146.009 59.902L146.023 60.7135L146.12 66.3005Z" fill="#F2F2F2"/>
<path d="M143.827 65.0431L143.771 65.0285L144.916 60.7489L143.605 59.0262L143.651 58.9916L144.979 60.7366L143.827 65.0431Z" fill="#CCCCCC"/>
<path d="M144.473 62.6L144.421 62.6249L146.242 66.3933L146.294 66.3684L144.473 62.6Z" fill="#CCCCCC"/>
<path d="M159.177 65.8817H155.654L155.132 59.1191H159.699L159.177 65.8817Z" fill="#E6E6E6"/>
<path d="M159.764 61.8502H155.067V62.8907H159.764V61.8502Z" fill="#F2F2F2"/>
<path d="M160.971 59.6046L160.22 59.3842L160.21 59.1102L156.872 58.1302L156.715 58.3552L155.964 58.1348L155.493 58.8098L161 60.4267L160.971 59.6046Z" fill="#CCCCCC"/>
<path d="M50.4842 57.3464L50.4808 57.3691L50.4716 57.4346L49.5155 64.2723L43.6616 66.4131L43.5699 66.3694L40.2925 64.818L38.5978 58.337L38.4817 57.8921L38.517 57.8787L45.7673 55.1638L50.4799 57.344L50.4842 57.3464Z" fill="#6C63FF"/>
<path d="M43.5699 66.3694L40.2925 64.8181L38.4817 57.8922L38.517 57.8788L43.2406 59.865L43.5699 66.3694Z" fill="#6C63FF"/>
<path opacity="0.2" d="M43.6521 66.2902L41.1591 61.5286L41.4793 60.1788L39.9714 58.4088L39.843 58.5175L41.2958 60.2227L40.2105 64.7987L40.3746 64.8373L41.0999 61.7785L43.5027 66.368L43.6521 66.2902Z" fill="black"/>
<path d="M50.4842 57.4305L50.4716 57.4346L43.2406 59.9489L38.5978 58.337L38.4817 57.8921L38.517 57.8787L45.7673 55.1638L50.4799 57.344L50.4808 57.3691L50.4842 57.4305Z" fill="#3F3D56"/>
<path d="M43.3669 60.0748L41.8928 58.9415L42.2297 57.6822L46.4411 56.1711L49.3049 56.339L50.4421 57.3044L50.5263 57.5563L43.3669 60.0748Z" fill="#6C63FF"/>
<path d="M38.5658 57.8921L41.8928 57.7662L43.6952 57.1564L46.5052 56.1712L47.0308 55.4156L45.7195 55.1818L38.5658 57.8921Z" fill="#6C63FF"/>
<path d="M45.1944 56.5413L43.4596 57.1481L43.5154 57.3065L45.2502 56.6997L45.1944 56.5413Z" fill="#CCCCCC"/>
<path d="M35.6973 66.0373H32.1743L31.6524 59.2747H36.2193L35.6973 66.0373Z" fill="#6C63FF"/>
<path d="M36.2845 62.0057H31.5872V63.0461H36.2845V62.0057Z" fill="#E6E6E6"/>
<path d="M36.4802 58.8845H35.6973L35.6103 58.6244H32.1309L32.0438 58.8845H31.261L31 59.6648H36.7412L36.4802 58.8845Z" fill="#3F3D56"/>
<path d="M136.473 65.9575H57.3889V66.2176H136.473V65.9575Z" fill="#3F3D56"/>
</g>
<defs>
<clipPath id="clip0_13_446">
<rect width="130" height="66.413" fill="white" transform="translate(31)"/>
</clipPath>
</defs>
</svg>
