<svg width="168" height="67" viewBox="0 0 168 67" fill="none" xmlns="http://www.w3.org/2000/svg">
<g clip-path="url(#clip0_13_398)">
<path d="M69.6754 52.1215C69.2284 55.6243 67.585 58.829 65.8318 61.916C65.7738 62.0211 65.7142 62.1247 65.6531 62.2298H47.4311C47.0626 62.1341 46.6988 62.029 46.3365 61.916C44.2784 61.2892 42.3354 60.3331 40.583 59.0847C33.8791 54.2533 31.2995 45.1238 32.4646 36.9434C33.1891 31.8611 35.419 26.672 39.7612 23.9348C42.0539 22.4869 44.9989 22.0163 47.6381 22.5544C47.7071 22.5669 47.7761 22.5826 47.8466 22.5967C50.1173 23.1081 52.1402 24.3787 53.2913 26.4257C55.3612 30.1042 54.1287 34.6611 53.111 38.7552C52.0964 42.8493 51.5459 47.7497 54.4909 50.7693C53.5187 47.9066 54.4784 44.4917 56.8008 42.556C58.5556 41.0956 60.9988 40.5481 63.2271 41.0015C63.4404 41.047 63.6506 41.0987 63.8575 41.1615C64.3578 41.308 64.8401 41.5101 65.2955 41.7638C68.7689 43.7042 70.1756 48.1733 69.6754 52.1215Z" fill="#F2F2F2"/>
<path d="M58.8708 61.916C59.3757 62.0336 59.8822 62.1371 60.3919 62.2297H57.6367C57.2759 62.1324 56.9168 62.0289 56.5609 61.916C55.7784 61.6713 55.0079 61.3905 54.2494 61.0736C51.2072 59.7967 48.4049 57.8799 46.2848 55.3293C45.2479 54.0935 44.4012 52.7099 43.7726 51.2242C43.091 49.5449 42.6578 47.7752 42.4867 45.9708C42.1025 42.2689 42.4946 38.4649 43.2269 34.8288C43.9826 31.0602 45.2025 27.3999 46.8587 23.9315C47.0579 23.5159 47.2638 23.1028 47.4766 22.6923C47.4912 22.6585 47.5134 22.6285 47.5414 22.6046C47.5693 22.5807 47.6024 22.5635 47.6381 22.5543C47.7105 22.5403 47.7855 22.5555 47.8467 22.5966C47.9201 22.6388 47.9745 22.7075 47.9988 22.7887C48.023 22.8698 48.0151 22.9572 47.9768 23.0327C46.2692 26.3638 44.9748 29.8912 44.1223 33.5363C43.2881 37.0924 42.8145 40.8132 42.976 44.4697C43.1296 47.8861 44.022 51.2461 46.0464 54.0399C47.8953 56.5905 50.4482 58.6014 53.2725 59.9709C55.0601 60.8264 56.9379 61.4788 58.8708 61.916Z" fill="white"/>
<path d="M64.9176 62.2298H64.1053C64.0143 62.1262 63.9265 62.0211 63.8403 61.916C61.99 59.6673 60.7366 56.988 60.1959 54.1262C59.5392 50.5548 60.05 46.8668 61.6527 43.6085C62.0998 42.6949 62.6266 41.8225 63.2271 41.0015C63.4403 41.047 63.6505 41.0987 63.8575 41.1615C62.2781 43.2546 61.2158 45.6916 60.7573 48.2736C60.3482 50.6931 60.4842 53.1734 61.1554 55.5335C61.8266 57.8937 63.016 60.0742 64.6369 61.916C64.7278 62.0211 64.8219 62.1262 64.9176 62.2298Z" fill="white"/>
<path d="M138.094 59.562C138.212 60.4864 138.646 61.3322 139.108 62.147C139.124 62.1747 139.139 62.202 139.155 62.2298H143.965C144.062 62.2045 144.158 62.1768 144.253 62.147C144.797 61.9815 145.309 61.7292 145.772 61.3997C147.541 60.1246 148.222 57.7152 147.914 55.5562C147.723 54.2149 147.135 52.8454 145.989 52.123C145.366 51.7439 144.624 51.6138 143.91 51.7587C143.892 51.762 143.873 51.7661 143.855 51.7699C143.558 51.8273 143.276 51.9471 143.028 52.1213C142.781 52.2955 142.573 52.5201 142.418 52.7804C141.872 53.7512 142.197 54.9539 142.466 56.0344C142.733 57.1149 142.879 58.4082 142.101 59.2051C142.215 58.8719 142.238 58.5143 142.168 58.1691C142.098 57.8239 141.938 57.5036 141.703 57.2411C141.468 56.9786 141.168 56.7833 140.833 56.6755C140.497 56.5676 140.139 56.5509 139.796 56.6272C139.739 56.6392 139.684 56.6529 139.629 56.6695C139.497 56.7081 139.37 56.7615 139.25 56.8284C138.333 57.3405 137.962 58.52 138.094 59.562Z" fill="#F2F2F2"/>
<path d="M140.945 62.1469C140.812 62.178 140.679 62.2053 140.544 62.2297H141.271C141.366 62.2041 141.461 62.1768 141.555 62.1469C141.762 62.0824 141.965 62.0083 142.165 61.9246C142.977 61.5949 143.698 61.075 144.267 60.4086C144.541 60.0825 144.764 59.7173 144.93 59.3252C145.11 58.882 145.224 58.4149 145.269 57.9387C145.352 56.9543 145.286 55.963 145.074 54.9981C144.875 54.0035 144.553 53.0375 144.116 52.1222C144.063 52.0124 144.009 51.9034 143.953 51.7951C143.949 51.7862 143.943 51.7783 143.935 51.7719C143.928 51.7656 143.919 51.7611 143.91 51.7587C143.891 51.755 143.871 51.759 143.855 51.7698C143.836 51.781 143.821 51.7991 143.815 51.8205C143.808 51.8419 143.81 51.865 143.821 51.8849C144.271 52.7641 144.613 53.695 144.838 54.657C145.07 55.6006 145.171 56.5714 145.14 57.5425C145.124 58.4458 144.842 59.3241 144.33 60.0683C143.832 60.7385 143.177 61.276 142.423 61.6336C141.951 61.8594 141.456 62.0316 140.945 62.1469Z" fill="white"/>
<path d="M139.35 62.2297H139.564C139.588 62.2024 139.611 62.1747 139.634 62.1469C140.122 61.5534 140.453 60.8463 140.596 60.0911C140.769 59.1485 140.634 58.1752 140.211 57.3152C140.093 57.0741 139.954 56.8439 139.796 56.6272C139.739 56.6392 139.684 56.6529 139.629 56.6694C140.046 57.2218 140.326 57.865 140.447 58.5465C140.555 59.185 140.52 59.8396 140.342 60.4625C140.165 61.0854 139.851 61.6608 139.424 62.1469C139.4 62.1747 139.375 62.2024 139.35 62.2297Z" fill="white"/>
<path d="M94.747 38.3362H79.6957L79.5361 33.7071C79.5292 33.5064 79.5659 33.3066 79.6436 33.1215C79.7212 32.9363 79.8381 32.7702 79.9861 32.6346C80.1341 32.4989 80.3097 32.397 80.5009 32.3357C80.692 32.2745 80.8942 32.2554 81.0935 32.2798L89.8523 33.3527H89.8534C91.1519 33.3562 92.3961 33.8744 93.3134 34.7938C94.2306 35.7132 94.7462 36.9589 94.747 38.2578V38.3362Z" fill="#6C63FF"/>
<path d="M88.0386 21.9159H77.541C77.4014 21.9159 77.2632 21.9433 77.1342 21.9968C77.0052 22.0502 76.888 22.1285 76.7893 22.2273C76.6906 22.326 76.6123 22.4433 76.5588 22.5723C76.5054 22.7013 76.478 22.8396 76.478 22.9793V33.48C76.478 33.6197 76.5054 33.758 76.5588 33.887C76.6123 34.016 76.6906 34.1333 76.7893 34.232C76.888 34.3308 77.0052 34.4091 77.1342 34.4625C77.2632 34.516 77.4014 34.5434 77.541 34.5434H88.0386C88.1782 34.5434 88.3165 34.516 88.4455 34.4625C88.5744 34.4091 88.6916 34.3308 88.7904 34.232C88.8891 34.1333 88.9674 34.016 89.0208 33.887C89.0742 33.758 89.1017 33.6197 89.1016 33.48V22.9793C89.1017 22.8396 89.0742 22.7013 89.0208 22.5723C88.9674 22.4433 88.8891 22.326 88.7904 22.2273C88.6916 22.1285 88.5744 22.0502 88.4455 21.9968C88.3165 21.9433 88.1782 21.9159 88.0386 21.9159Z" fill="#CCCCCC"/>
<path d="M85.6744 29.7679L80.718 30.7334C80.424 30.7903 80.1195 30.7283 79.8712 30.5609C79.6228 30.3934 79.4511 30.1343 79.3935 29.8404L79.0125 27.8833C78.9556 27.5892 79.0176 27.2846 79.185 27.0362C79.3524 26.7878 79.6114 26.6159 79.9053 26.5584L84.8616 25.5929C85.1556 25.536 85.4602 25.598 85.7085 25.7654C85.9568 25.9328 86.1286 26.192 86.1862 26.4859L86.5672 28.443C86.6241 28.7371 86.562 29.0417 86.3947 29.2901C86.2273 29.5385 85.9683 29.7103 85.6744 29.7679Z" fill="#3F3D56"/>
<path d="M84.6828 27.4559L80.9003 28.1927C80.8311 28.2062 80.7594 28.1916 80.701 28.1522C80.6425 28.1128 80.6021 28.0518 80.5886 27.9826C80.5752 27.9133 80.5897 27.8416 80.6291 27.7832C80.6685 27.7247 80.7295 27.6843 80.7987 27.6708L84.5812 26.934C84.6504 26.9205 84.7221 26.9351 84.7805 26.9745C84.839 27.0139 84.8794 27.0749 84.8929 27.1441C84.9063 27.2133 84.8918 27.285 84.8524 27.3435C84.813 27.402 84.752 27.4424 84.6828 27.4559Z" fill="white"/>
<path d="M83.9476 28.547L81.9911 28.9282C81.9219 28.9416 81.8502 28.9271 81.7918 28.8877C81.7333 28.8483 81.6929 28.7872 81.6795 28.718C81.666 28.6488 81.6806 28.5771 81.7199 28.5186C81.7593 28.4602 81.8203 28.4198 81.8895 28.4063L83.846 28.0252C83.8802 28.0185 83.9155 28.0186 83.9497 28.0256C83.9839 28.0325 84.0164 28.0461 84.0453 28.0657C84.0743 28.0852 84.0991 28.1102 84.1184 28.1393C84.1376 28.1684 84.151 28.201 84.1576 28.2353C84.1643 28.2696 84.1642 28.3048 84.1572 28.339C84.1503 28.3732 84.1367 28.4057 84.1172 28.4347C84.0977 28.4636 84.0726 28.4885 84.0435 28.5077C84.0144 28.527 83.9818 28.5404 83.9476 28.547Z" fill="white"/>
<path d="M89.1016 22.9793V24.3749H76.478V22.9793C76.478 22.8396 76.5054 22.7013 76.5588 22.5723C76.6123 22.4433 76.6906 22.326 76.7893 22.2273C76.888 22.1285 77.0052 22.0502 77.1342 21.9968C77.2632 21.9433 77.4014 21.9159 77.541 21.9159H88.0386C88.1782 21.9159 88.3165 21.9433 88.4455 21.9968C88.5745 22.0502 88.6917 22.1285 88.7904 22.2273C88.8891 22.326 88.9674 22.4433 89.0208 22.5723C89.0742 22.7013 89.1017 22.8396 89.1016 22.9793Z" fill="#B3B3B3"/>
<path d="M114.31 24.812C114.237 24.5766 114.113 24.3602 113.948 24.1778C113.782 23.9954 113.579 23.8516 113.352 23.7564C113.124 23.6612 112.879 23.617 112.633 23.6268C112.387 23.6367 112.146 23.7005 111.927 23.8136L97.4852 18.6304L96.8491 22.2394L111.245 26.1994C111.46 26.5545 111.797 26.8186 112.193 26.9417C112.589 27.0648 113.016 27.0383 113.394 26.8673C113.771 26.6963 114.073 26.3926 114.242 26.0138C114.411 25.635 114.435 25.2074 114.31 24.812Z" fill="#FFB8B8"/>
<path opacity="0.2" d="M114.31 24.812C114.237 24.5766 114.113 24.3602 113.948 24.1778C113.782 23.9954 113.579 23.8516 113.352 23.7564C113.124 23.6612 112.879 23.617 112.633 23.6268C112.387 23.6367 112.146 23.7005 111.927 23.8136L97.4852 18.6304L96.8491 22.2394L111.245 26.1994C111.46 26.5545 111.797 26.8186 112.193 26.9417C112.589 27.0648 113.016 27.0383 113.394 26.8673C113.771 26.6963 114.073 26.3926 114.242 26.0138C114.411 25.635 114.435 25.2074 114.31 24.812Z" fill="black"/>
<path d="M100.049 19.288L98.6848 22.852C98.646 22.9534 98.5858 23.0452 98.5083 23.1213C98.4308 23.1973 98.3378 23.2557 98.2357 23.2926C98.1336 23.3294 98.0248 23.3439 97.9166 23.3348C97.8084 23.3258 97.7035 23.2936 97.6089 23.2403L94.2944 21.3742C93.7769 21.1727 93.3604 20.7741 93.1363 20.2658C92.9121 19.7576 92.8986 19.1812 93.0987 18.663C93.2987 18.1448 93.696 17.727 94.2034 17.5014C94.7109 17.2757 95.2871 17.2605 95.8057 17.4592L99.5069 18.2803C99.6129 18.3038 99.7125 18.3499 99.799 18.4155C99.8856 18.481 99.957 18.5644 100.008 18.6601C100.06 18.7557 100.09 18.8613 100.097 18.9697C100.104 19.078 100.087 19.1866 100.049 19.288Z" fill="#6C63FF"/>
<path d="M115.447 28.1119L110.272 30.4649L110.951 33.0235C112.263 37.9643 112.611 43.1117 111.977 48.1843L115.76 48.9747L118.897 40.9747L117.799 31.8767L115.447 28.1119Z" fill="#6C63FF"/>
<path d="M125.6 39.9552C122.2 39.9552 119.43 42.4277 119.295 45.5238H131.906C131.771 42.4277 129.001 39.9552 125.6 39.9552Z" fill="#3F3D56"/>
<path d="M122.954 40.4887C122.777 26.5125 114.819 27.7983 114.819 27.7983C114.819 27.7983 114.968 32.1486 115.04 32.2839C120.11 41.8807 111.742 53.1316 101.089 51.0618C100.889 51.0228 100.696 50.9832 100.511 50.9431C99.1608 50.6612 97.9691 49.8756 97.1778 48.746C96.3866 47.6165 96.0551 46.2279 96.2509 44.8626C97.3003 36.4334 92.0811 36.5826 92.0811 36.5826H84.4495L80.4862 33.0146C80.3463 32.8887 80.1777 32.7989 79.9951 32.7532C79.8126 32.7075 79.6216 32.7073 79.4389 32.7525C79.2562 32.7977 79.0873 32.887 78.9471 33.0126C78.8069 33.1381 78.6995 33.2961 78.6345 33.4728L78.1246 34.8571C78.1246 34.8571 70.5974 35.6414 71.2247 43.014H73.5518C73.5462 43.2235 73.5546 43.4331 73.5769 43.6415L90.9444 43.5002C91.9624 43.4919 92.861 44.3171 92.8652 45.3355C92.8662 45.5834 92.8173 45.829 92.7213 46.0576C92.6252 46.2861 92.4841 46.493 92.3063 46.6657C92.1285 46.8384 91.9177 46.9735 91.6865 47.0629C91.4553 47.1523 91.2085 47.1941 90.9608 47.1858L88.1608 47.0925C87.2983 50.9356 89.4153 53.5239 91.7479 55.1513C93.9441 56.6614 96.5501 57.462 99.2151 57.4454H106.822C116.701 57.4454 118.426 49.1317 118.426 49.1317C123.601 46.9356 122.954 40.4887 122.954 40.4887Z" fill="#3F3D56"/>
<path d="M125.13 61.9944C130.002 61.9944 133.951 58.044 133.951 53.1708C133.951 48.2977 130.002 44.3473 125.13 44.3473C120.258 44.3473 116.309 48.2977 116.309 53.1708C116.309 58.044 120.258 61.9944 125.13 61.9944Z" fill="#3F3D56"/>
<path d="M125.13 55.3336C126.324 55.3336 127.292 54.3653 127.292 53.1709C127.292 51.9765 126.324 51.0083 125.13 51.0083C123.936 51.0083 122.968 51.9765 122.968 53.1709C122.968 54.3653 123.936 55.3336 125.13 55.3336Z" fill="white"/>
<path d="M80.5944 61.9945C86.2022 61.9945 90.7482 57.4471 90.7482 51.8376C90.7482 46.2281 86.2022 41.6807 80.5944 41.6807C74.9866 41.6807 70.4406 46.2281 70.4406 51.8376C70.4406 57.4471 74.9866 61.9945 80.5944 61.9945Z" fill="#3F3D56"/>
<path d="M80.5944 54.327C81.9689 54.327 83.0831 53.2125 83.0831 51.8376C83.0831 50.4627 81.9689 49.3481 80.5944 49.3481C79.22 49.3481 78.1057 50.4627 78.1057 51.8376C78.1057 53.2125 79.22 54.327 80.5944 54.327Z" fill="white"/>
<path d="M110.286 31.1601L108.424 26.1014C108.327 25.8377 108.283 25.5575 108.294 25.2768C108.306 24.9961 108.372 24.7203 108.49 24.4652C108.608 24.2102 108.774 23.9808 108.981 23.7902C109.187 23.5997 109.429 23.4516 109.693 23.3546L115.031 21.3889C115.494 21.2181 115.987 21.1403 116.481 21.16C116.975 21.1797 117.46 21.2965 117.909 21.5037C118.357 21.7109 118.761 22.0046 119.096 22.3678C119.431 22.731 119.692 23.1567 119.862 23.6206C120.016 24.037 120.095 24.4774 120.095 24.9214C120.093 25.4851 119.965 26.0412 119.721 26.5495C119.478 27.0577 119.124 27.5052 118.685 27.8594C118.369 28.1135 118.013 28.3143 117.631 28.4538L110.286 31.1601Z" fill="#3F3D56"/>
<path d="M120.016 24.9214C120.016 25.4736 119.892 26.0187 119.653 26.5166C119.414 27.0144 119.067 27.4524 118.636 27.7983C117.976 27.624 117.362 27.3081 116.836 26.8723C116.31 26.4366 115.885 25.8915 115.591 25.275C115.297 24.6584 115.141 23.9853 115.133 23.3023C115.126 22.6192 115.267 21.9427 115.547 21.3198C116.085 21.2028 116.642 21.2078 117.178 21.3344C117.714 21.461 118.214 21.706 118.643 22.0514C119.071 22.3969 119.417 22.8339 119.655 23.3306C119.893 23.8272 120.016 24.3708 120.016 24.9214Z" fill="#6C63FF"/>
<path d="M72.5576 44.0335C73.7701 44.0335 74.753 42.8396 74.753 41.3669C74.753 39.8941 73.7701 38.7002 72.5576 38.7002C71.3451 38.7002 70.3622 39.8941 70.3622 41.3669C70.3622 42.8396 71.3451 44.0335 72.5576 44.0335Z" fill="#6C63FF"/>
<path d="M101.578 50.8063H103.501L104.415 45.8185L101.578 45.8186L101.578 50.8063Z" fill="#FFB8B8"/>
<path d="M101.088 50.1785L104.874 50.1783H104.874C105.191 50.1783 105.505 50.2408 105.797 50.3621C106.09 50.4833 106.356 50.6611 106.58 50.8852C106.804 51.1094 106.982 51.3754 107.103 51.6682C107.224 51.9611 107.287 52.2749 107.287 52.5919V52.6703L101.088 52.6705L101.088 50.1785Z" fill="#2F2E41"/>
<path d="M103.81 48.7592C103.787 48.7592 103.765 48.7581 103.742 48.756L101.082 48.5622C100.974 48.5522 100.87 48.5176 100.778 48.4612C100.686 48.4047 100.608 48.3278 100.55 48.2364C100.492 48.145 100.457 48.0416 100.445 47.9341C100.434 47.8266 100.447 47.7179 100.484 47.6164L104.045 39.6141C104.07 39.5428 104.081 39.4669 104.075 39.3914C104.07 39.3158 104.049 39.2422 104.014 39.1751C103.979 39.1072 103.93 39.0475 103.87 38.9999C103.811 38.9523 103.741 38.918 103.667 38.899C101.993 38.4612 97.6971 37.2955 93.9784 35.9315C92.3851 35.3471 91.3817 34.5026 90.9959 33.4214C90.4873 31.996 91.2397 30.696 91.272 30.6415L91.2972 30.5988L94.7965 30.9169L98.5901 31.2397L106.903 35.699C107.6 36.0758 108.129 36.7012 108.385 37.4508C108.642 38.2003 108.606 39.0189 108.286 39.7435L104.454 48.3408C104.398 48.4654 104.308 48.5711 104.194 48.6454C104.079 48.7196 103.946 48.7591 103.81 48.7592Z" fill="#2F2E41"/>
<path d="M95.4049 15.0848C97.5321 15.0848 99.2565 13.3599 99.2565 11.2321C99.2565 9.10432 97.5321 7.37939 95.4049 7.37939C93.2778 7.37939 91.5534 9.10432 91.5534 11.2321C91.5534 13.3599 93.2778 15.0848 95.4049 15.0848Z" fill="#FFB8B8"/>
<path d="M100.48 51.277H102.403L103.318 46.2892L100.48 46.2893L100.48 51.277Z" fill="#FFB8B8"/>
<path d="M99.99 50.6491L103.776 50.6489H103.776C104.093 50.6489 104.407 50.7113 104.7 50.8326C104.992 50.9539 105.258 51.1317 105.482 51.3558C105.706 51.5799 105.884 51.846 106.005 52.1388C106.127 52.4317 106.189 52.7455 106.189 53.0625V53.1409L99.9901 53.1411L99.99 50.6491Z" fill="#2F2E41"/>
<path d="M102.712 49.2298C102.69 49.2298 102.667 49.2287 102.644 49.2266L99.9838 49.0328C99.8762 49.0228 99.7724 48.9882 99.6802 48.9317C99.5881 48.8753 99.5102 48.7983 99.4525 48.707C99.3947 48.6156 99.3588 48.5122 99.3473 48.4047C99.3359 48.2972 99.3493 48.1885 99.3865 48.087L102.947 40.0847C102.973 40.0134 102.983 39.9375 102.978 39.862C102.972 39.7864 102.952 39.7128 102.916 39.6457C102.881 39.5778 102.832 39.5181 102.773 39.4705C102.713 39.4229 102.644 39.3885 102.57 39.3696C100.895 38.9318 96.5994 37.7661 92.8806 36.4021C91.2874 35.8177 90.2839 34.9731 89.8982 33.892C89.3896 32.4666 90.142 31.1666 90.1742 31.1121L90.1995 31.0693L93.6988 31.3875L97.4923 31.7103L105.806 36.1695C106.502 36.5464 107.031 37.1718 107.288 37.9214C107.544 38.6709 107.509 39.4895 107.189 40.2141L103.356 48.8114C103.3 48.9359 103.21 49.0417 103.096 49.116C102.982 49.1902 102.848 49.2297 102.712 49.2298Z" fill="#2F2E41"/>
<path d="M96.5928 17.2694L92.5156 15.8577C92.5156 15.8577 89.956 17.8247 91.1856 22.7045C91.8276 25.2227 91.6406 27.8808 90.6524 30.2842C90.5335 30.5816 90.3963 30.8713 90.2418 31.1518C90.2418 31.1518 94.7894 36.642 99.0234 32.5636L97.3769 24.642C97.3769 24.642 99.9643 19.3871 96.5928 17.2694Z" fill="#6C63FF"/>
<path d="M95.8831 15.2159C95.335 14.3951 94.9024 13.257 95.5059 12.4761C96.1016 11.7052 97.2767 11.8188 98.1891 11.4777C99.4599 11.0026 100.197 9.50919 99.9671 8.17172C99.7372 6.83425 98.6639 5.72553 97.3853 5.27188C96.1067 4.81822 94.6648 4.96576 93.4127 5.48817C91.8713 6.13126 90.549 7.37528 89.9946 8.95113C89.4401 10.527 89.7365 12.4191 90.8867 13.6303C92.1199 14.9289 94.0553 15.2749 95.8457 15.2539" fill="#2F2E41"/>
<path d="M92.3004 8.2146C91.6097 8.77709 90.5558 8.52726 89.8143 8.0336C89.0728 7.53995 88.4712 6.83701 87.6689 6.44996C86.2546 5.76762 84.5446 6.22122 83.168 6.97704C81.7915 7.73286 80.5713 8.77705 79.1173 9.37017C77.6633 9.9633 75.8079 9.99261 74.7069 8.87266C74.436 9.65789 74.4138 10.5076 74.6435 11.3059C74.8731 12.1042 75.3434 12.8122 75.9902 13.3332C76.6369 13.8543 77.4287 14.163 78.2573 14.2174C79.086 14.2717 79.9112 14.069 80.6204 13.6368C82.2136 12.6661 83.0936 10.6307 84.8805 10.095C85.8693 9.79848 86.931 10.0373 87.9304 10.2959C88.9298 10.5545 89.9718 10.834 90.9803 10.6138C91.9888 10.3936 92.9322 9.48707 92.8039 8.46249L92.3004 8.2146Z" fill="#2F2E41"/>
<path d="M114.118 24.655C114.017 24.4305 113.868 24.2309 113.681 24.0704C113.494 23.9098 113.274 23.7922 113.037 23.7258C112.8 23.6593 112.551 23.6457 112.308 23.6859C112.065 23.7261 111.834 23.8191 111.631 23.9583L96.6596 20.5972L96.4735 24.2571L111.248 26.4101C111.505 26.736 111.872 26.9565 112.28 27.0298C112.688 27.1031 113.109 27.0241 113.463 26.8078C113.816 26.5914 114.078 26.2528 114.199 25.856C114.32 25.4593 114.291 25.0319 114.118 24.655Z" fill="#FFB8B8"/>
<path d="M99.2845 20.9334L98.3707 24.6385C98.3447 24.7439 98.2963 24.8425 98.2288 24.9275C98.1613 25.0125 98.0763 25.0819 97.9795 25.1311C97.8827 25.1803 97.7765 25.208 97.668 25.2124C97.5596 25.2168 97.4514 25.1978 97.351 25.1566L93.8317 23.7139C93.2929 23.578 92.83 23.234 92.5446 22.7572C92.2592 22.2803 92.1745 21.7097 92.3092 21.1705C92.4438 20.6313 92.7868 20.1676 93.2629 19.8811C93.7389 19.5945 94.3092 19.5086 94.8485 19.6422L98.6227 20.0002C98.7307 20.0105 98.8353 20.044 98.9293 20.0983C99.0232 20.1527 99.1044 20.2267 99.1672 20.3152C99.23 20.4038 99.273 20.5048 99.2932 20.6115C99.3135 20.7182 99.3105 20.828 99.2845 20.9334V20.9334Z" fill="#6C63FF"/>
<path d="M112.389 27.5629C112.995 27.5629 113.486 27.0713 113.486 26.4649C113.486 25.8584 112.995 25.3668 112.389 25.3668C111.783 25.3668 111.291 25.8584 111.291 26.4649C111.291 27.0713 111.783 27.5629 112.389 27.5629Z" fill="#6C63FF"/>
<path d="M161 62.0729C161 62.1144 160.983 62.1543 160.954 62.1837C160.925 62.213 160.885 62.2296 160.843 62.2297H31.1568C31.1152 62.2297 31.0753 62.2132 31.0459 62.1838C31.0165 62.1544 31 62.1145 31 62.0729C31 62.0313 31.0165 61.9914 31.0459 61.962C31.0753 61.9325 31.1152 61.916 31.1568 61.916H160.843C160.885 61.9161 160.925 61.9327 160.954 61.9621C160.983 61.9915 161 62.0313 161 62.0729Z" fill="#3F3D56"/>
</g>
<defs>
<clipPath id="clip0_13_398">
<rect width="130" height="57.2283" fill="white" transform="translate(31 5.00146)"/>
</clipPath>
</defs>
</svg>
