<svg xmlns="http://www.w3.org/2000/svg" viewBox="0 0 1245.7 1262.73"><defs><style>.cls-1{font-size:194.07px;fill:#1a1a1a;font-family:Poppins-Medium, Poppins;font-weight:500;}.cls-2{font-size:63.04px;font-family:Poppins-Regular, Poppins;letter-spacing:0.2em;}.cls-2,.cls-6{fill:#0655a3;}.cls-3,.cls-5{fill:#0393ce;}.cls-4{fill:#85abd2;}.cls-4,.cls-5{fill-rule:evenodd;}</style></defs><title>logo</title><g id="Layer_2" data-name="Layer 2"><g id="Logo"><text class="cls-1" transform="translate(0 1106.74)">Online Super</text><text class="cls-2" transform="translate(139.72 1226.67)">ORDERS ON YOUR HAND</text><circle class="cls-3" cx="494.3" cy="787.37" r="76.74"/><circle class="cls-3" cx="803.01" cy="786.23" r="76.74"/><path class="cls-4" d="M652.17,0h47.07V46A23.84,23.84,0,0,1,675.47,69.8H628.4v-46A23.84,23.84,0,0,1,652.17,0Z"/><path class="cls-4" d="M745.43,69.8h91.5v89.48a46.33,46.33,0,0,1-46.19,46.2h-91.5V116A46.32,46.32,0,0,1,745.43,69.8Z"/><path class="cls-5" d="M559.13,120.41h91.5V209.9a46.33,46.33,0,0,1-46.19,46.2h-91.5V166.61a46.33,46.33,0,0,1,46.19-46.2Z"/><path class="cls-3" d="M750.56,641.79C506.76,723.7,241,595.92,175.82,400.6c-2.33-7.39-4.55-15.23-6.43-22.5,76,180.4,316.65,262.71,551.78,184.23,234-77.82,376.9-287.54,330.82-476.71,2.58,6.49,5.16,13,7.62,19.92C1124.77,300.87,994.68,560.45,750.56,641.79Z"/><path class="cls-6" d="M233.49,256.1h60.88l106.5,284a463,463,0,0,0,137.49,21.09c57.47,0,115.37-9.6,172.06-28.52C814.24,498.17,899.53,436,956.57,361.37c5.12-30-17.58-58.7-49.37-58.7H411.31l-41.05-109.5A46.61,46.61,0,0,0,326.64,163H233.49a46.58,46.58,0,1,0,0,93.15Z"/></g></g></svg>