<svg xmlns="http://www.w3.org/2000/svg" viewBox="0 0 2167.12 561.22"><defs><style>.cls-1{font-size:220.98px;fill:#1a1a1a;font-family:Poppins-Medium, Poppins;font-weight:500;}.cls-2{font-size:71.78px;font-family:Poppins-Regular, Poppins;letter-spacing:0.2em;}.cls-2,.cls-6{fill:#0655a3;}.cls-3,.cls-5{fill:#0393ce;}.cls-4{fill:#85abd2;}.cls-4,.cls-5{fill-rule:evenodd;}</style></defs><title>logo2</title><g id="Layer_2" data-name="Layer 2"><g id="Logo"><text class="cls-1" transform="translate(748.68 285.55)">Online Super</text><text class="cls-2" transform="translate(907.78 422.11)">ORDERS ON YOUR HAND</text><circle class="cls-3" cx="211.02" cy="511.38" r="49.84"/><circle class="cls-3" cx="411.52" cy="510.64" r="49.84"/><path class="cls-4" d="M313.55,0h30.57V29.9a15.47,15.47,0,0,1-15.43,15.43H298.12V15.43A15.48,15.48,0,0,1,313.55,0Z"/><path class="cls-4" d="M374.13,45.33h59.43v58.12a30.09,30.09,0,0,1-30,30H344.12V75.33a30.1,30.1,0,0,1,30-30Z"/><path class="cls-5" d="M253.13,78.21h59.43v58.11a30.09,30.09,0,0,1-30,30H223.13V108.21a30.09,30.09,0,0,1,30-30Z"/><path class="cls-3" d="M377.46,416.83C219.12,470,46.5,387,4.18,260.18c-1.52-4.8-3-9.89-4.18-14.61C49.35,362.73,205.66,416.19,358.37,365.22c152-50.54,244.79-186.75,214.86-309.61,1.68,4.21,3.35,8.43,4.95,12.94C620.5,195.4,536,364,377.46,416.83Z"/><path class="cls-6" d="M41.63,166.33H81.17L150.34,350.8a300.84,300.84,0,0,0,89.3,13.7A352.93,352.93,0,0,0,351.39,346c67.42-22.43,122.82-62.82,159.87-111.28a32.58,32.58,0,0,0-32.07-38.12H157.13l-26.67-71.12a30.27,30.27,0,0,0-28.33-19.63H41.63a30.25,30.25,0,0,0,0,60.5Z"/></g></g></svg>