<svg width="168" height="67" viewBox="0 0 168 67" fill="none" xmlns="http://www.w3.org/2000/svg">
<g clip-path="url(#clip0_13_329)">
<path d="M95.981 66.0014C118.083 66.0014 136 64.6072 136 62.8874C136 61.1675 118.083 59.7733 95.981 59.7733C73.8791 59.7733 55.962 61.1675 55.962 62.8874C55.962 64.6072 73.8791 66.0014 95.981 66.0014Z" fill="#3F3D56"/>
<path d="M129.975 57.1024L130.35 59.8421L127.724 60.0911L128.1 56.7288L129.975 57.1024Z" fill="#A0616A"/>
<path d="M117.597 19.4943C117.597 19.4943 117.847 22.8566 117.847 22.9811C117.847 23.1056 116.097 31.6982 116.097 31.6982C116.097 31.6982 113.596 36.4304 116.097 36.3058C118.597 36.1813 117.847 31.8228 117.847 31.8228L120.473 24.6L119.348 19.4943L117.597 19.4943Z" fill="#A0616A"/>
<path d="M121.723 57.1024L121.348 59.8421L123.974 60.0911L123.599 56.7288L121.723 57.1024Z" fill="#A0616A"/>
<path d="M118.847 31.4492L118.222 32.3209C118.222 32.3209 117.847 36.0568 118.222 37.3021C118.597 38.5474 119.348 44.2758 119.348 44.6494C119.348 45.023 119.473 45.272 119.348 45.3966C119.223 45.5211 118.847 45.5211 119.097 45.7702C119.348 46.0192 119.348 46.7664 119.348 46.7664V47.3891L120.973 56.6043C120.973 56.6043 119.973 57.7251 120.723 57.7251C121.473 57.7251 124.224 57.7251 124.099 56.4798L123.849 56.3552C123.849 56.3552 123.473 48.1362 123.598 47.7627C123.724 47.3891 123.598 46.6419 123.598 46.6419C123.598 46.6419 123.348 46.2683 123.598 46.1438C123.849 46.0192 123.849 45.023 123.849 45.023L124.974 37.4266C124.974 37.4266 125.974 42.5324 126.599 43.0305C127.224 43.5286 127.099 44.7739 127.099 44.7739L127.599 55.7326C127.599 55.7326 127.099 56.9779 127.599 57.2269C128.099 57.476 130.225 58.3477 130.35 57.1024C130.475 55.8571 131.1 45.023 131.1 44.5249C131.1 44.0267 130.975 43.7777 131.1 43.4041C131.225 43.0305 130.975 43.0305 131.1 43.0305C131.225 43.0305 130.85 42.6569 130.85 42.4078V36.3059C130.85 36.3059 130.975 35.0606 131.1 34.8115C131.225 34.5624 130.975 34.3134 131.1 33.9398C131.225 33.5662 130.85 32.3209 130.85 32.3209L125.224 30.8265L118.847 31.4492Z" fill="#2F2E41"/>
<path d="M123.223 59.3438C123.223 59.3438 123.849 58.7212 122.973 58.7212C122.411 58.7326 121.858 58.8598 121.348 59.0948L120.723 61.3363C120.723 61.3363 118.16 63.3911 121.035 63.142C123.911 62.893 123.473 63.0797 123.473 63.0797C123.473 63.0797 124.349 62.8307 124.474 62.5816C124.599 62.3326 124.224 58.7212 124.224 58.7212C124.224 58.7212 123.849 59.7174 123.223 59.3438Z" fill="#2F2E41"/>
<path d="M128.6 59.3438C128.6 59.3438 127.974 58.7212 128.85 58.7212C129.412 58.7326 129.965 58.8598 130.475 59.0948L131.1 61.3363C131.1 61.3363 133.663 63.3911 130.788 63.142C127.912 62.893 127.974 63.0798 127.974 63.0798C127.974 63.0798 127.099 62.8307 126.974 62.5816C126.849 62.3326 127.599 58.7212 127.599 58.7212C127.599 58.7212 127.974 59.7174 128.6 59.3438Z" fill="#2F2E41"/>
<path d="M120.473 9.65636C122.268 9.65636 123.724 8.20675 123.724 6.41857C123.724 4.63039 122.268 3.18079 120.473 3.18079C118.678 3.18079 117.222 4.63039 117.222 6.41857C117.222 8.20675 118.678 9.65636 120.473 9.65636Z" fill="#A0616A"/>
<path d="M119.348 8.78461C119.348 8.78461 119.848 11.2752 119.848 11.6488C119.848 12.0224 121.973 13.1432 121.973 13.1432L124.349 10.1544C124.349 10.1544 122.848 8.03743 122.848 7.53931L119.348 8.78461Z" fill="#A0616A"/>
<path d="M121.223 12.0224C121.223 12.0224 120.133 11.7335 119.803 11.2553C119.803 11.2553 116.347 14.6376 116.347 15.2602L119.098 20.1169C119.098 20.1169 119.098 21.8603 119.348 21.9849C119.598 22.1094 119.348 21.9849 119.348 22.483C119.348 22.9811 118.597 26.2189 118.847 26.717C119.098 27.2151 119.348 26.8415 119.098 27.5887C118.847 28.3359 118.222 32.3209 118.222 32.3209C118.222 32.3209 120.473 31.5737 123.724 32.819C126.974 34.0643 130.85 32.3209 130.85 32.3209C130.85 32.3209 129.85 30.0793 130.1 29.3322C130.35 28.585 129.475 27.2151 129.475 27.2151L128.85 15.7584C128.85 15.7584 129.725 10.6526 129.1 10.4035L127.849 9.90542L123.846 9.41528C123.846 9.41528 122.848 11.8979 121.223 12.0224Z" fill="#D0CDE1"/>
<path d="M117.597 14.3884L116.347 15.2601C116.347 15.2601 115.722 17.1281 116.347 17.9998C116.972 18.8715 117.222 20.1168 117.222 20.1168L119.723 19.8678L117.597 14.3884Z" fill="#D0CDE1"/>
<path d="M117.991 2.99674L117.427 2.7719C117.427 2.7719 118.606 1.47904 120.246 1.59146L119.785 1.08555C119.785 1.08555 120.913 0.635868 121.938 1.8163C122.477 2.43683 123.101 3.16623 123.489 3.98789H124.093L123.841 4.54063L124.723 5.09338L123.818 4.99409C123.904 5.47129 123.874 5.96196 123.732 6.42563L123.756 6.86252C123.756 6.86252 122.707 5.24519 122.707 5.02035V5.58246C122.707 5.58246 122.143 5.07656 122.143 4.73929L121.835 5.13277L121.682 4.51445L119.785 5.13277L120.093 4.62687L118.914 4.79551L119.375 4.17718C119.375 4.17718 118.042 4.90793 117.991 5.52626C117.94 6.14458 117.273 6.93154 117.273 6.93154L116.966 6.36943C116.966 6.36943 116.504 3.83991 117.991 2.99674Z" fill="#2F2E41"/>
<path d="M118.745 28.1016H69.0614V62.8638H118.745V28.1016Z" fill="#F2F2F2"/>
<path d="M85.7187 41.365H73.2438V63.0555H85.7187V41.365Z" fill="#3F3D56"/>
<path d="M78.9117 42.6663H75.5513V45.7864H78.9117V42.6663Z" fill="#F2F2F2"/>
<path d="M83.4112 42.6663H80.0508V45.7864H83.4112V42.6663Z" fill="#F2F2F2"/>
<path d="M78.9117 46.9209H75.5513V50.1545H78.9117V46.9209Z" fill="#F2F2F2"/>
<path d="M83.4112 46.9209H80.0508V50.1545H83.4112V46.9209Z" fill="#F2F2F2"/>
<path d="M84.1323 54.4606C84.5704 54.4606 84.9255 54.1069 84.9255 53.6705C84.9255 53.2342 84.5704 52.8805 84.1323 52.8805C83.6942 52.8805 83.3391 53.2342 83.3391 53.6705C83.3391 54.1069 83.6942 54.4606 84.1323 54.4606Z" fill="#6C63FF"/>
<path d="M114.563 39.3059H89.9011V59.9191H114.563V39.3059Z" fill="#3F3D56"/>
<path d="M123.937 34.6461H63.8695L67.8745 26.306L68.7708 24.4386L69.9434 21.9966L70.8396 20.1292L71.8787 17.9659H119.204L119.818 20.1292L120.348 21.9966L121.041 24.4386L121.571 26.306L123.937 34.6461Z" fill="#3F3D56"/>
<path d="M91.6317 47.8529H90.7664V53.1678H91.6317V47.8529Z" fill="#6C63FF"/>
<path d="M91.6317 48.6429H90.7664V49.2893H91.6317V48.6429Z" fill="#F2F2F2"/>
<path d="M91.6317 51.7313H90.7664V52.3777H91.6317V51.7313Z" fill="#F2F2F2"/>
<path d="M94.1555 47.8529H92.0643V53.1678H94.1555V47.8529Z" fill="#6C63FF"/>
<path d="M94.1555 48.6429H92.0643V49.2893H94.1555V48.6429Z" fill="#F2F2F2"/>
<path d="M94.1555 51.7313H92.0643V52.3777H94.1555V51.7313Z" fill="#F2F2F2"/>
<path d="M95.5256 47.8529H94.6603V53.1678H95.5256V47.8529Z" fill="#6C63FF"/>
<path d="M95.5256 48.6429H94.6603V49.2893H95.5256V48.6429Z" fill="#F2F2F2"/>
<path d="M95.5256 51.7313H94.6603V52.3777H95.5256V51.7313Z" fill="#F2F2F2"/>
<path d="M96.8236 47.8529H95.9583V53.1678H96.8236V47.8529Z" fill="#6C63FF"/>
<path d="M96.8236 48.6429H95.9583V49.2893H96.8236V48.6429Z" fill="#F2F2F2"/>
<path d="M96.8236 51.7313H95.9583V52.3777H96.8236V51.7313Z" fill="#F2F2F2"/>
<path d="M97.6574 47.8717L96.8477 48.1757L98.7299 53.1489L99.5396 52.8449L97.6574 47.8717Z" fill="#6C63FF"/>
<path d="M97.9372 48.6109L97.1275 48.9149L97.3564 49.5198L98.1661 49.2158L97.9372 48.6109Z" fill="#F2F2F2"/>
<path d="M99.0309 51.5008L98.2212 51.8048L98.4501 52.4097L99.2598 52.1057L99.0309 51.5008Z" fill="#F2F2F2"/>
<path d="M113.769 47.8529H111.678V53.1678H113.769V47.8529Z" fill="#6C63FF"/>
<path d="M113.769 48.6429H111.678V49.2893H113.769V48.6429Z" fill="#F2F2F2"/>
<path d="M113.769 51.7313H111.678V52.3777H113.769V51.7313Z" fill="#F2F2F2"/>
<path d="M111.173 47.8529H110.308V53.1678H111.173V47.8529Z" fill="#6C63FF"/>
<path d="M111.173 48.6429H110.308V49.2893H111.173V48.6429Z" fill="#F2F2F2"/>
<path d="M111.173 51.7313H110.308V52.3777H111.173V51.7313Z" fill="#F2F2F2"/>
<path d="M109.875 47.8529H109.01V53.1678H109.875V47.8529Z" fill="#6C63FF"/>
<path d="M109.875 48.6429H109.01V49.2893H109.875V48.6429Z" fill="#F2F2F2"/>
<path d="M109.875 51.7313H109.01V52.3777H109.875V51.7313Z" fill="#F2F2F2"/>
<path d="M108.176 47.8717L106.294 52.845L107.104 53.149L108.986 48.1757L108.176 47.8717Z" fill="#6C63FF"/>
<path d="M107.896 48.611L107.668 49.2158L108.477 49.5198L108.706 48.915L107.896 48.611Z" fill="#F2F2F2"/>
<path d="M106.803 51.5009L106.574 52.1057L107.384 52.4097L107.612 51.8049L106.803 51.5009Z" fill="#F2F2F2"/>
<path d="M114.563 53.1677H89.9011V53.6705H114.563V53.1677Z" fill="#F2F2F2"/>
<path d="M105.188 47.8529H100.645V53.1678H105.188V47.8529Z" fill="#6C63FF"/>
<path d="M104.071 49.0021H101.763V50.0076H104.071V49.0021Z" fill="#F2F2F2"/>
<path d="M102.448 39.3059H102.015V43.9026H102.448V39.3059Z" fill="#F2F2F2"/>
<path d="M102.232 44.6208C102.63 44.6208 102.953 44.2992 102.953 43.9026C102.953 43.5059 102.63 43.1843 102.232 43.1843C101.834 43.1843 101.511 43.5059 101.511 43.9026C101.511 44.2992 101.834 44.6208 102.232 44.6208Z" fill="#F2F2F2"/>
<path d="M120.348 21.9967H69.9434L70.8397 20.1293H119.818L120.348 21.9967Z" fill="#6C63FF"/>
<path d="M121.571 26.306H67.8745L68.7707 24.4386H121.041L121.571 26.306Z" fill="#6C63FF"/>
<path d="M126.849 15.5093C126.849 15.5093 126.125 17.3636 126.276 19.1983C126.304 19.5268 126.415 19.8429 126.599 20.1169V20.1169L117.729 24.3112C117.729 24.3112 113.721 24.7245 114.722 26.4679C115.722 28.2114 119.348 25.5962 119.348 25.5962C119.348 25.5962 128.85 24.2264 129.6 22.8566C130.35 21.4867 130.85 15.7583 130.85 15.7583L126.849 15.5093Z" fill="#A0616A"/>
<path d="M127.224 10.4034H129.1C129.1 10.4034 130.475 10.6525 130.85 13.1431C131.225 15.6337 131.6 16.2564 131.225 16.2564C130.85 16.2564 126.349 16.1318 126.349 16.0073C126.349 15.8828 127.224 10.4034 127.224 10.4034Z" fill="#D0CDE1"/>
<path d="M64.62 47.6046C69.9329 47.6046 74.2399 43.3147 74.2399 38.0229C74.2399 32.731 69.9329 28.4412 64.62 28.4412C59.307 28.4412 55 32.731 55 38.0229C55 43.3147 59.307 47.6046 64.62 47.6046Z" fill="#6C63FF"/>
<path opacity="0.1" d="M64.62 46.2631C69.1891 46.2631 72.8931 42.5738 72.8931 38.0229C72.8931 33.4719 69.1891 29.7826 64.62 29.7826C60.0508 29.7826 56.3468 33.4719 56.3468 38.0229C56.3468 42.5738 60.0508 46.2631 64.62 46.2631Z" fill="black"/>
<path d="M64.2235 42.8854V41.6861C63.6148 41.6742 62.9852 41.4604 62.6179 41.1636L62.8697 40.368C63.3062 40.6938 63.8355 40.8726 64.3809 40.8785C65.1261 40.8785 65.6298 40.3917 65.6298 39.7148C65.6298 39.0617 65.2205 38.658 64.4439 38.3017C63.3735 37.8268 62.7123 37.2805 62.7123 36.2474C62.7123 35.2618 63.3315 34.5137 64.297 34.3356V33.1362H64.9477V34.2881C65.4329 34.2947 65.9061 34.4388 66.312 34.7037L66.0496 35.4874C65.6603 35.222 65.199 35.0812 64.7273 35.0837C63.9192 35.0837 63.6148 35.6299 63.6148 36.1049C63.6148 36.7224 64.0031 37.0311 64.9162 37.4587C65.9971 37.9574 66.5429 38.5749 66.5429 39.6317C66.5429 40.5698 65.9657 41.4486 64.8847 41.6503V42.8854H64.2235Z" fill="#F2F2F2"/>
</g>
<defs>
<clipPath id="clip0_13_329">
<rect width="81" height="65" fill="white" transform="translate(55 1.00146)"/>
</clipPath>
</defs>
</svg>
